<?xml version="1.0" encoding="utf-8"?>
<!-- Generator: Adobe Illustrator 22.1.0, SVG Export Plug-In . SVG Version: 6.00 Build 0)  -->
<svg version="1.1" id="Layer_1" xmlns="http://www.w3.org/2000/svg" xmlns:xlink="http://www.w3.org/1999/xlink" x="0px" y="0px"
	 viewBox="0 0 200 200" style="enable-background:new 0 0 200 200;" xml:space="preserve">
<style type="text/css">
	.st0{fill:none;stroke:#000000;stroke-miterlimit:10;}
	.st1{fill:none;}
</style>
<path class="st0" d="M195,51.6"/>
<path class="st0" d="M5,51.6"/>
<g>
	<path d="M200,98.5c0,1.7-0.6,3.4-1.9,4.7l-80.5,85.4c-2.6,2.7-6.8,2.8-9.4,0.2s-2.7-6.9-0.2-9.6l75.9-80.5L105.3,21
		c-2.6-2.6-2.7-6.9-0.2-9.6c2.6-2.7,6.8-2.8,9.4-0.2L198,93.6C199.3,94.9,200,96.7,200,98.5z"/>
</g>
<g>
	<line class="st1" x1="190.2" y1="99.9" x2="7.5" y2="99.9"/>
	<path d="M190.2,107.3H7.5c-4.1,0-7.4-3.3-7.4-7.4s3.3-7.4,7.4-7.4h182.7c4.1,0,7.4,3.3,7.4,7.4C197.6,104,194.3,107.3,190.2,107.3z
		"/>
</g>
</svg>
