<?xml version="1.0" encoding="utf-8"?>
<!-- Generator: Adobe Illustrator 22.1.0, SVG Export Plug-In . SVG Version: 6.00 Build 0)  -->
<svg version="1.1" id="Layer_1" xmlns="http://www.w3.org/2000/svg" xmlns:xlink="http://www.w3.org/1999/xlink" x="0px" y="0px"
	 viewBox="0 0 200 200" style="enable-background:new 0 0 200 200;" xml:space="preserve">
<style type="text/css">
	.st0{fill:none;stroke:#000000;stroke-miterlimit:10;}
	.st1{fill:none;}
</style>
<g>
	<path class="st0" d="M5.1,51.6"/>
</g>
<g>
	<path class="st0" d="M195.1,51.6"/>
</g>
<g>
	<g>
		<path d="M2.1,93.6l83.5-82.4c2.6-2.6,6.8-2.5,9.4,0.2c2.5,2.7,2.4,7-0.2,9.6L16.2,98.7l75.9,80.5c2.5,2.7,2.4,7-0.2,9.6
			s-6.8,2.5-9.4-0.2L2,103.2c-1.3-1.3-1.9-3-1.9-4.7C0.1,96.7,0.8,94.9,2.1,93.6z"/>
	</g>
</g>
<g>
	<g>
		<line class="st1" x1="192.6" y1="99.9" x2="9.9" y2="99.9"/>
	</g>
	<g>
		<path d="M2.5,99.9c0-4.1,3.3-7.4,7.4-7.4h182.7c4.1,0,7.4,3.3,7.4,7.4s-3.3,7.4-7.4,7.4H9.9C5.8,107.3,2.5,104,2.5,99.9z"/>
	</g>
</g>
</svg>
