<?xml version="1.0" encoding="utf-8"?>
<!-- Generator: Adobe Illustrator 22.1.0, SVG Export Plug-In . SVG Version: 6.00 Build 0)  -->
<svg version="1.1" id="Layer_1" xmlns="http://www.w3.org/2000/svg" xmlns:xlink="http://www.w3.org/1999/xlink" x="0px" y="0px"
	 viewBox="0 0 200 200" style="enable-background:new 0 0 200 200;" xml:space="preserve">
<polygon points="48.7,153.3 48.7,69 69.4,69 69.4,153.3 "/>
<path d="M87.5,150.3"/>
<path d="M89.7,71h20.7v8.8c1.5-1.3,14.1-13.4,29.2-10.3c11.2,2.2,14.8,6.6,17.7,9.9c3.3,3.7,4.2,6.1,4.9,12.2c0.7,6.2,0.6,13,0.6,13
	l0.2,48.8h-20.6l-0.2-44.7c0,0,2.1-21.2-15-20.5c-15.7,0.6-16.7,20.5-16.7,20.5l-0.5,44.7H89.7l0,0V71z"/>
<ellipse cx="59" cy="51.5" rx="11.3" ry="11.5"/>
<g>
	<path d="M100,200C44.8,200,0,155.1,0,100S44.8,0,100,0s100,44.9,100,100S155.2,200,100,200z M100,9.7C50.2,9.7,9.6,50.2,9.6,100
		s40.5,90.3,90.4,90.3s90.4-40.5,90.4-90.3S149.8,9.7,100,9.7z"/>
</g>
</svg>
