<?xml version="1.0" encoding="utf-8"?>
<!-- Generator: Adobe Illustrator 22.1.0, SVG Export Plug-In . SVG Version: 6.00 Build 0)  -->
<svg version="1.1" id="Layer_1" xmlns="http://www.w3.org/2000/svg" xmlns:xlink="http://www.w3.org/1999/xlink" x="0px" y="0px"
	 viewBox="0 0 200 200" style="enable-background:new 0 0 200 200;" xml:space="preserve">
<g>
	<path d="M100,197.6c-54.2,0-98.4-44.3-98.4-98.8C1.6,44.3,45.8,0,100,0s98.4,44.3,98.4,98.8C198.4,153.2,154.2,197.6,100,197.6z
		 M100,4C48,4,5.6,46.5,5.6,98.8s42.3,94.8,94.4,94.8c52,0,94.4-42.5,94.4-94.8S152,4,100,4z"/>
</g>
<g>
	<g>
		<path d="M100,200.5L100,200.5c-29.3,0-56.8-12.5-75.4-34.1c-14-16.2-22.6-37.1-24.3-58.8c-1.7-21.9,3.8-43.9,15.5-61.8
			C34.4,17.6,66.8,0,100.5,0c9.6,0,19.1,1.4,28.2,4.2c20.6,6.4,38.1,18.9,51,36.3c12.9,17.4,18.8,38,19.8,59.5v0.1c0,0,0,0,0,0.1
			v0.1c-1,39-22.6,74.6-57.1,90.6C129.2,197.1,114.7,200.5,100,200.5z M99,7c-13.5,0-26.5,3-38.6,8.8c-41.7,20-63,68.3-49.7,111.8
			c12,39.2,48.7,66.9,89.2,66.9l0,0c4.7,0,9.5-0.8,14.1-1.5c44.8-7.2,78.7-47.1,79-92.5c-0.1-18.4-5.3-36.1-14.9-50.8
			C160.9,23.4,130.6,7,99,7z"/>
	</g>
</g>
<g>
	<path d="M60.1,100.5c0-1.4,0.5-2.7,1.5-3.8L128,27.8c2.1-2.2,5.6-2.2,7.8-0.1s2.2,5.6,0.1,7.8l-62.6,64.9l64.9,62.6
		c2.2,2.1,2.2,5.6,0.1,7.8c-2.1,2.2-5.6,2.2-7.8,0.1l-68.9-66.5C60.6,103.3,60.1,101.9,60.1,100.5z"/>
</g>
</svg>
