<?xml version="1.0" encoding="utf-8"?>
<!-- Generator: Adobe Illustrator 22.1.0, SVG Export Plug-In . SVG Version: 6.00 Build 0)  -->
<svg version="1.1" id="Layer_1" xmlns="http://www.w3.org/2000/svg" xmlns:xlink="http://www.w3.org/1999/xlink" x="0px" y="0px"
	 viewBox="0 0 200 200" style="enable-background:new 0 0 200 200;" xml:space="preserve">
<path d="M128.4,45.5c0,0-0.2-0.1-0.5-0.3c-3-1.4-17.9-7.9-18,6.9c-0.1,16.7-0.4,14.8-0.4,14.8l17.6,0.1v23.8h-17.6V179H81.1l0.3-88
	h-9.9V67h9.9l0.4-22.2c0,0-0.3-21.8,22.4-23.7c9.1-0.8,21.9,3.6,24.1,4.3c0.2,0.1,0.3,0.1,0.3,0.1L128.4,45.5L128.4,45.5z"/>
<g>
	<path d="M100,200C44.8,200,0,155.1,0,100S44.8,0,100,0s100,44.9,100,100S155.2,200,100,200z M100,9.7C50.2,9.7,9.6,50.2,9.6,100
		s40.5,90.3,90.4,90.3s90.4-40.5,90.4-90.3S149.8,9.7,100,9.7z"/>
</g>
</svg>
