<?xml version="1.0" encoding="utf-8"?>
<!-- Generator: Adobe Illustrator 22.1.0, SVG Export Plug-In . SVG Version: 6.00 Build 0)  -->
<svg version="1.1" id="Layer_1" xmlns="http://www.w3.org/2000/svg" xmlns:xlink="http://www.w3.org/1999/xlink" x="0px" y="0px"
	 viewBox="0 0 200 200" style="enable-background:new 0 0 200 200;" xml:space="preserve">
<g>
	<path d="M87.5,150.3"/>
</g>
<g id="Layer_2_1_">
</g>
<g>
	<path d="M39.3,143.2c0,0,20,4.1,40-11.3c0,0-18.6,0.1-25.4-18.8c0,0,8.4,1,12.3-0.5c0,0-21.8-5.2-21.5-27c0,0,6.2,3.3,12.2,3.3
		c0,0-20.3-13.5-8.3-36c0,0,21.8,27.9,55.8,28.1c0,0-5.8-25.8,21-32.8c0,0,13.5-3.5,25,8c0,0,11.6-2.3,17.1-6.5c0,0-1.6,9-11.7,14.8
		c0,0,8.8-0.5,15.3-4.1c0,0-9.2,12.8-13.4,14.1c0,0-1,20.3-5.7,31.3c0,0-4.3,19.3-26,35c0,0-5.6,3.2-13.4,7.2
		c-6.6,3.4-14.9,5.4-21.5,6.4c0,0-19.3,1.9-31.5-2.3C59.6,152.3,41.8,145.9,39.3,143.2z"/>
</g>
<g>
	<path d="M100,200.1c-55.2,0-100-44.9-100-100s44.9-100,100-100s100,44.9,100,100S155.2,200.1,100,200.1z M100,9.8
		c-49.8,0-90.4,40.5-90.4,90.3s40.5,90.3,90.4,90.3c49.8,0,90.4-40.5,90.4-90.3S149.8,9.8,100,9.8z"/>
</g>
</svg>
