<?xml version="1.0" encoding="utf-8"?>
<!-- Generator: Adobe Illustrator 22.1.0, SVG Export Plug-In . SVG Version: 6.00 Build 0)  -->
<svg version="1.1" id="Layer_1" xmlns="http://www.w3.org/2000/svg" xmlns:xlink="http://www.w3.org/1999/xlink" x="0px" y="0px"
	 viewBox="0 0 200 200" style="enable-background:new 0 0 200 200;" xml:space="preserve">
<g id="Layer_1_1_">
	<ellipse cx="47.7" cy="22.6" rx="18.9" ry="19.1"/>
	<path d="M30.7,53.5c0-8.1,28.5-8.1,28.5,0c-0.2,29.1-2.7,88.7,2.9,113c1.8,7.6,23,25.9,30.8,29.3c7.8,3.5-62.3-6-62.3-37.8
		C30.7,131.5,30.7,83.5,30.7,53.5z"/>
	<path d="M106,53.4l16.1,0.1c0,0,0,80.7-0.3,113.3c-0.1,9.9-24,26.2-28.8,29c-4.6,2.7,62.6-5.2,62.8-26.2
		c0.2-12.4,0.2-10.4,0.3-15.6c0.1-5.2-0.1-100.5-0.1-100.5h15.2l-30.4-50"/>
</g>
<g id="Layer_2_1_">
</g>
</svg>
